<?xml version="1.0" encoding="utf-8"?>
<!-- Generator: Adobe Illustrator 17.0.0, SVG Export Plug-In . SVG Version: 6.00 Build 0)  -->
<!DOCTYPE svg PUBLIC "-//W3C//DTD SVG 1.1//EN" "http://www.w3.org/Graphics/SVG/1.1/DTD/svg11.dtd">
<svg version="1.1" xmlns="http://www.w3.org/2000/svg" xmlns:xlink="http://www.w3.org/1999/xlink" x="0px" y="0px" width="169px"
	 height="115px" viewBox="0 0 169 115" enable-background="new 0 0 169 115" xml:space="preserve">
<g id="Layer_1">
</g>
<g id="banner">
</g>
<g id="header">
</g>
<g id="content">
</g>
<g id="footer">
	<g>
		<g>
			<g>
				<path fill="#C2C2C1" d="M97.707,61.265c0.886,0,1.331,0.444,1.331,1.33c0,0.793-0.444,1.191-1.331,1.191
					c-2.8,0-5.275-0.981-7.422-2.941c-1.027-0.793-1.915-1.682-2.661-2.661c-0.747-0.98-1.448-2.006-2.101-3.081L67.04,27.026
					v29.688h-0.21v0.069c0,0.188,0.07,0.281,0.21,0.281c0,0.98,0.373,1.925,1.12,2.835c0.747,0.91,1.634,1.366,2.661,1.366
					c0.84,0,1.26,0.444,1.26,1.33c0,0.793-0.42,1.191-1.26,1.191H60.738c-0.887,0-1.331-0.398-1.331-1.191
					c0-0.886,0.444-1.33,1.331-1.33c1.12,0,2.006-0.514,2.661-1.541c0.653-1.026,0.98-2.03,0.98-3.01V27.586
					c0-1.82-0.327-4.189-0.98-7.107c-0.654-2.916-2.287-4.422-4.901-4.516h-0.069c-0.888,0-1.331-0.42-1.331-1.259
					c0-0.887,0.443-1.331,1.331-1.331h0.069h0.07c0.746,0,1.587,0.059,2.521,0.175c0.933,0.117,1.936,0.362,3.011,0.735
					c2.333,0.935,4.364,2.59,6.092,4.972C70.191,19.255,96.867,61.265,97.707,61.265z M70.098,15.893
					c-0.886,0-1.331-0.444-1.331-1.33c0-0.793,0.444-1.191,1.331-1.191c2.8,0,5.275,0.981,7.422,2.941
					c1.027,0.793,1.915,1.682,2.661,2.661c0.747,0.98,1.448,2.006,2.101,3.081l18.485,28.077V20.444h0.21v-0.069
					c0-0.188-0.07-0.281-0.21-0.281c0-0.98-0.373-1.925-1.12-2.835c-0.747-0.91-1.634-1.366-2.661-1.366
					c-0.84,0-1.26-0.444-1.26-1.33c0-0.793,0.42-1.191,1.26-1.191h10.083c0.887,0,1.331,0.398,1.331,1.191
					c0,0.886-0.444,1.33-1.331,1.33c-1.12,0-2.006,0.514-2.661,1.541c-0.653,1.026-0.98,2.03-0.98,3.01v29.128
					c0,1.82,0.327,4.189,0.98,7.107c0.654,2.916,2.287,4.422,4.901,4.517h0.069c0.888,0,1.331,0.42,1.331,1.259
					c0,0.887-0.443,1.331-1.331,1.331h-0.069h-0.07c-0.746,0-1.587-0.059-2.521-0.175c-0.933-0.117-1.936-0.362-3.011-0.735
					c-2.333-0.935-4.364-2.59-6.092-4.972C97.614,57.903,70.938,15.893,70.098,15.893z M92.56,30.367v-0.029
					c0-0.373,0.176-0.558,0.528-0.558c0.372,0,0.559,0.186,0.559,0.558v0.029v0.029c0,0.313-0.025,0.666-0.073,1.058
					c-0.049,0.392-0.152,0.812-0.308,1.263c-0.392,0.979-1.087,1.831-2.086,2.556c0,0-17.628,11.194-17.628,11.546
					c0,0.372-0.186,0.558-0.558,0.558c-0.333,0-0.5-0.186-0.5-0.558c0-1.175,0.412-2.213,1.234-3.114
					c0.333-0.431,0.706-0.803,1.117-1.116c0.411-0.314,0.842-0.608,1.293-0.881l11.781-7.756
					C87.918,33.952,92.521,31.464,92.56,30.367z"/>
			</g>
			<g>
				<path fill="#C2C2C1" d="M15.856,87.307c0.108,0,0.192,0.032,0.25,0.095c0.059,0.064,0.127,0.145,0.205,0.242l10.147,13.466
					l-0.368-13.172c0-0.117,0.079-0.181,0.236-0.191c0.176-0.029,0.41-0.059,0.705-0.088c0.293-0.029,0.577-0.044,0.851-0.044
					c0.156,0,0.234,0.073,0.234,0.22l-0.352,14.317v2.687c0,0.117-0.079,0.181-0.236,0.191c-0.176,0.02-0.374,0.035-0.594,0.045
					c-0.22,0.009-0.442,0.015-0.667,0.015c-0.089,0-0.157-0.017-0.207-0.052c-0.049-0.034-0.097-0.091-0.147-0.169l-10.22-13.568
					l0.368,13.51c0,0.117-0.079,0.181-0.236,0.191c-0.176,0.029-0.418,0.054-0.726,0.074c-0.309,0.019-0.586,0.029-0.83,0.029
					c-0.157,0-0.234-0.074-0.234-0.22l0.366-15.301l-1.204-1.645c-0.039-0.039-0.059-0.093-0.059-0.161
					c0-0.127,0.088-0.216,0.265-0.264c0.156-0.029,0.357-0.057,0.602-0.081c0.244-0.024,0.492-0.046,0.741-0.066
					c0.249-0.019,0.477-0.034,0.683-0.044C15.636,87.312,15.777,87.307,15.856,87.307z"/>
				<path fill="#C2C2C1" d="M46.458,104.37c0,0.108-0.053,0.187-0.161,0.235c-0.831,0.254-1.684,0.438-2.555,0.551
					s-1.752,0.169-2.642,0.169c-1.459,0-2.795-0.198-4.009-0.594c-1.215-0.397-2.257-0.975-3.128-1.733
					c-0.871-0.758-1.549-1.693-2.033-2.804c-0.485-1.111-0.727-2.381-0.727-3.81c0-1.468,0.257-2.761,0.771-3.877
					c0.513-1.116,1.223-2.048,2.129-2.797c0.905-0.749,1.974-1.314,3.208-1.696c1.234-0.382,2.574-0.572,4.024-0.572
					c0.831,0,1.615,0.049,2.349,0.147s1.455,0.225,2.16,0.382c0.107,0.02,0.183,0.061,0.226,0.125
					c0.044,0.064,0.072,0.13,0.081,0.199c0.009,0.137,0.023,0.314,0.037,0.529c0.015,0.215,0.027,0.448,0.036,0.697
					c0.009,0.249,0.023,0.504,0.037,0.763c0.015,0.259,0.027,0.499,0.036,0.719c0.009,0.22,0.017,0.409,0.023,0.566
					c0.004,0.157,0.007,0.254,0.007,0.294l-0.734,0.073c-0.079-0.617-0.272-1.136-0.58-1.557c-0.309-0.421-0.687-0.761-1.138-1.021
					c-0.45-0.259-0.95-0.445-1.499-0.558c-0.548-0.113-1.096-0.169-1.644-0.169c-1.076,0-2.024,0.169-2.842,0.507
					c-0.817,0.338-1.5,0.815-2.048,1.432c-0.549,0.617-0.959,1.356-1.234,2.217c-0.274,0.862-0.412,1.816-0.412,2.864
					c0,1.233,0.172,2.362,0.514,3.385c0.342,1.023,0.854,1.901,1.535,2.635c0.681,0.735,1.527,1.305,2.541,1.711
					c1.013,0.406,2.19,0.609,3.531,0.609c0.225,0,0.458-0.005,0.698-0.015c0.24-0.009,0.486-0.029,0.741-0.059v-4.611
					c0-0.284-0.019-0.514-0.059-0.69c-0.039-0.176-0.105-0.31-0.197-0.404c-0.093-0.093-0.213-0.157-0.36-0.191
					c-0.148-0.035-0.329-0.051-0.544-0.051c-0.069,0-0.14,0.002-0.213,0.007c-0.073,0.005-0.149,0.007-0.228,0.007l-0.073-0.823
					c0.529-0.039,1.015-0.071,1.462-0.095c0.445-0.025,0.837-0.044,1.174-0.059c0.338-0.015,0.617-0.025,0.838-0.029
					c0.22-0.005,0.364-0.007,0.433-0.007c0.313,0,0.469,0.157,0.469,0.47V104.37z"/>
				<path fill="#C2C2C1" d="M53.433,99.539c-0.011,0.734,0.083,1.354,0.278,1.858c0.196,0.504,0.47,0.91,0.822,1.218
					c0.353,0.308,0.763,0.529,1.234,0.661c0.47,0.133,0.979,0.199,1.527,0.199c0.705,0,1.398-0.113,2.078-0.338
					c0.679-0.225,1.358-0.504,2.033-0.837V88.291c0-0.225,0.117-0.362,0.353-0.411c0.156-0.029,0.334-0.054,0.536-0.073
					c0.201-0.02,0.398-0.037,0.594-0.052c0.196-0.015,0.376-0.027,0.537-0.037c0.161-0.009,0.281-0.015,0.36-0.015
					c0.234,0,0.352,0.123,0.352,0.367v16.432c0,0.235-0.117,0.372-0.352,0.411c-0.167,0.029-0.345,0.056-0.536,0.081
					c-0.192,0.025-0.377,0.044-0.558,0.059c-0.181,0.015-0.345,0.025-0.493,0.03c-0.147,0.005-0.258,0.007-0.337,0.007
					c-0.225,0-0.342-0.123-0.353-0.368l-0.103-1.204c-0.919,0.509-1.887,0.933-2.899,1.27c-1.014,0.338-2.04,0.506-3.078,0.506
					c-0.645,0-1.258-0.088-1.835-0.264c-0.578-0.176-1.079-0.445-1.506-0.807c-0.426-0.362-0.763-0.825-1.013-1.388
					c-0.25-0.563-0.376-1.226-0.376-1.99v-10.66c0-0.274-0.027-0.497-0.08-0.668c-0.055-0.171-0.132-0.306-0.234-0.404
					c-0.104-0.097-0.226-0.166-0.368-0.205c-0.143-0.039-0.301-0.059-0.477-0.059c-0.196,0-0.412,0.015-0.646,0.044l-0.088-0.808
					c0.528-0.097,1.03-0.181,1.504-0.249c0.476-0.069,0.897-0.123,1.263-0.162c0.368-0.039,0.673-0.068,0.918-0.088
					c0.245-0.019,0.401-0.029,0.47-0.029c0.313,0,0.47,0.157,0.47,0.47V99.539z"/>
				<path fill="#C2C2C1" d="M69.38,87.557c0.147,0,0.264,0.044,0.352,0.132c0.089,0.089,0.177,0.216,0.265,0.382l4.17,7.489
					l3.553-7.239c0.059-0.117,0.123-0.211,0.192-0.279c0.068-0.068,0.171-0.122,0.308-0.161c0.137-0.039,0.284-0.069,0.441-0.088
					c0.156-0.02,0.308-0.037,0.454-0.052c0.148-0.015,0.281-0.024,0.404-0.029c0.123-0.005,0.218-0.007,0.286-0.007
					c0.177,0,0.265,0.059,0.265,0.177c0,0.039-0.011,0.079-0.029,0.117c-0.02,0.039-0.04,0.083-0.059,0.133l-5.272,8.84v7.533
					c0,0.235-0.117,0.372-0.353,0.411c-0.167,0.029-0.35,0.056-0.55,0.081c-0.201,0.025-0.397,0.044-0.588,0.059
					c-0.191,0.015-0.366,0.025-0.529,0.03c-0.161,0.005-0.281,0.007-0.36,0.007c-0.234,0-0.352-0.123-0.352-0.368v-7.489
					l-4.068-7.254c-0.245-0.44-0.476-0.746-0.69-0.918c-0.216-0.171-0.48-0.256-0.793-0.256c-0.079,0-0.167,0.007-0.265,0.022
					c-0.097,0.015-0.211,0.031-0.337,0.051l-0.088-0.808c0.43-0.088,0.849-0.164,1.255-0.227c0.406-0.064,0.775-0.118,1.108-0.162
					c0.333-0.044,0.612-0.075,0.837-0.095C69.164,87.567,69.31,87.557,69.38,87.557z"/>
				<path fill="#C2C2C1" d="M85.752,102.622c0,0.235,0.008,0.419,0.023,0.551s0.053,0.235,0.117,0.308
					c0.064,0.073,0.169,0.12,0.316,0.139c0.147,0.02,0.352,0.029,0.617,0.029h1.895c0.782,0,1.419-0.017,1.908-0.051
					c0.49-0.034,0.906-0.147,1.248-0.338c0.342-0.191,0.644-0.494,0.903-0.911c0.26-0.416,0.55-1.005,0.874-1.769l0.734,0.162
					c0,0.069-0.023,0.244-0.067,0.528c-0.044,0.284-0.1,0.615-0.168,0.991c-0.069,0.377-0.148,0.761-0.236,1.153
					c-0.088,0.392-0.176,0.734-0.264,1.028c-0.128,0.332-0.368,0.499-0.719,0.499c-0.362,0-0.793-0.003-1.292-0.007
					s-1.055-0.01-1.667-0.015c-0.612-0.005-1.268-0.01-1.968-0.015c-0.699-0.005-1.432-0.007-2.196-0.007h-2.437
					c-0.137,0-0.23-0.041-0.28-0.125s-0.073-0.164-0.073-0.242V90.42c0-0.499-0.112-0.829-0.337-0.991
					c-0.225-0.161-0.505-0.242-0.838-0.242c-0.205,0-0.416,0.015-0.63,0.044l-0.089-0.808c0.207-0.039,0.505-0.088,0.897-0.147
					c0.392-0.059,0.799-0.117,1.226-0.177c0.426-0.059,0.837-0.107,1.234-0.147c0.396-0.039,0.707-0.059,0.933-0.059h5.345
					c0.332,0,0.679-0.003,1.042-0.007c0.362-0.005,0.763-0.012,1.204-0.022c0.156,0,0.245,0.073,0.264,0.22
					c0.011,0.137,0.023,0.318,0.037,0.544s0.027,0.47,0.036,0.734c0.011,0.264,0.023,0.534,0.037,0.808
					c0.015,0.274,0.027,0.528,0.037,0.763c0.009,0.235,0.016,0.436,0.021,0.602c0.005,0.167,0.008,0.269,0.008,0.308l-0.734,0.074
					c-0.168-0.695-0.336-1.234-0.508-1.615c-0.171-0.382-0.389-0.661-0.653-0.837c-0.265-0.176-0.6-0.281-1.006-0.315
					c-0.406-0.035-0.933-0.052-1.579-0.052h-2.585c-0.167,0-0.292,0.005-0.374,0.015c-0.083,0.01-0.144,0.035-0.184,0.074
					c-0.039,0.039-0.061,0.095-0.065,0.169c-0.005,0.073-0.008,0.174-0.008,0.301v5.947c0.803-0.039,1.54-0.076,2.21-0.111
					c0.67-0.034,1.252-0.063,1.748-0.088c0.494-0.025,0.893-0.044,1.196-0.059s0.489-0.022,0.558-0.022
					c0.273,0,0.41,0.147,0.41,0.44c0,0.186-0.009,0.377-0.029,0.573c-0.02,0.196-0.044,0.406-0.073,0.632l-6.021-0.206V102.622z
					 M91.347,86.455h-0.895l-2.261-2.409h-0.117l-2.262,2.409h-0.837l-0.103-0.118l2.144-3.524c0.059-0.108,0.128-0.199,0.205-0.272
					c0.079-0.073,0.192-0.12,0.338-0.139c0.313-0.049,0.57-0.079,0.771-0.089c0.2-0.009,0.345-0.015,0.433-0.015
					c0.147,0,0.254,0.035,0.322,0.103c0.068,0.069,0.137,0.161,0.205,0.278l2.16,3.657L91.347,86.455z"/>
				<path fill="#C2C2C1" d="M98.718,87.307c0.108,0,0.192,0.032,0.25,0.095c0.059,0.064,0.127,0.145,0.205,0.242l10.147,13.466
					l-0.368-13.172c0-0.117,0.079-0.181,0.236-0.191c0.176-0.029,0.41-0.059,0.705-0.088c0.293-0.029,0.577-0.044,0.851-0.044
					c0.156,0,0.234,0.073,0.234,0.22l-0.352,14.317v2.687c0,0.117-0.079,0.181-0.236,0.191c-0.176,0.02-0.374,0.035-0.594,0.045
					c-0.22,0.009-0.442,0.015-0.667,0.015c-0.089,0-0.157-0.017-0.207-0.052c-0.049-0.034-0.097-0.091-0.147-0.169l-10.22-13.568
					l0.368,13.51c0,0.117-0.079,0.181-0.236,0.191c-0.176,0.029-0.418,0.054-0.726,0.074c-0.309,0.019-0.586,0.029-0.83,0.029
					c-0.157,0-0.234-0.074-0.234-0.22l0.366-15.301l-1.204-1.645c-0.039-0.039-0.059-0.093-0.059-0.161
					c0-0.127,0.088-0.216,0.265-0.264c0.156-0.029,0.357-0.057,0.602-0.081c0.244-0.024,0.492-0.046,0.741-0.066
					c0.249-0.019,0.477-0.034,0.683-0.044C98.499,87.312,98.64,87.307,98.718,87.307z"/>
				<path fill="#C2C2C1" d="M133.594,88.291c0-0.225,0.117-0.362,0.352-0.411c0.157-0.029,0.336-0.054,0.537-0.073
					c0.2-0.02,0.398-0.037,0.594-0.052s0.374-0.027,0.536-0.037c0.163-0.009,0.281-0.015,0.36-0.015
					c0.236,0,0.353,0.123,0.353,0.367v16.432c0,0.235-0.117,0.372-0.353,0.411c-0.167,0.029-0.349,0.056-0.55,0.081
					c-0.201,0.025-0.397,0.044-0.588,0.059s-0.366,0.025-0.529,0.03c-0.161,0.005-0.281,0.007-0.36,0.007
					c-0.234,0-0.352-0.123-0.352-0.368v-8.37l-8.561,0.103v8.047c0,0.235-0.117,0.372-0.352,0.411
					c-0.167,0.029-0.35,0.056-0.552,0.081c-0.2,0.025-0.396,0.044-0.586,0.059c-0.192,0.015-0.368,0.025-0.529,0.03
					c-0.161,0.005-0.282,0.007-0.36,0.007c-0.236,0-0.353-0.123-0.353-0.368V90.185c0-0.274-0.027-0.497-0.08-0.668
					c-0.055-0.171-0.133-0.306-0.236-0.404c-0.103-0.097-0.225-0.166-0.366-0.205c-0.143-0.039-0.301-0.059-0.477-0.059
					c-0.216,0-0.432,0.015-0.646,0.044l-0.089-0.808c0.529-0.097,1.031-0.181,1.505-0.249c0.474-0.069,0.895-0.123,1.263-0.162
					c0.368-0.039,0.673-0.068,0.918-0.088c0.244-0.019,0.401-0.029,0.47-0.029c0.313,0,0.469,0.157,0.469,0.47v7.136h8.561V88.291z"
					/>
				<path fill="#C2C2C1" d="M143.021,98.746l-2.262,6.094c-0.039,0.107-0.127,0.171-0.264,0.191
					c-0.176,0.02-0.377,0.035-0.602,0.045c-0.225,0.009-0.48,0.015-0.763,0.015c-0.157,0-0.234-0.049-0.234-0.147
					c0-0.029,0.004-0.053,0.015-0.073l6.725-16.124l-0.309-0.851c-0.02-0.079-0.029-0.133-0.029-0.162
					c0-0.147,0.093-0.234,0.278-0.264c0.157-0.029,0.341-0.057,0.552-0.081c0.211-0.024,0.413-0.046,0.609-0.066
					c0.196-0.019,0.377-0.034,0.544-0.044c0.167-0.009,0.289-0.015,0.366-0.015c0.196,0,0.338,0.113,0.426,0.338l6.55,16.858
					c0.029,0.078,0.044,0.132,0.044,0.161c0,0.167-0.099,0.264-0.294,0.294c-0.176,0.029-0.374,0.056-0.594,0.081
					c-0.22,0.025-0.436,0.044-0.646,0.059c-0.21,0.015-0.404,0.025-0.58,0.03c-0.177,0.005-0.304,0.007-0.382,0.007
					c-0.167,0-0.278-0.074-0.337-0.22l-2.394-6.226L143.021,98.746z M143.49,97.498h5.506l-2.79-7.283L143.49,97.498z
					 M147.662,86.455h-0.794l-2.334-3.627c-0.04-0.069-0.059-0.123-0.059-0.162c0-0.117,0.083-0.191,0.249-0.22
					c0.236-0.059,0.505-0.098,0.807-0.118c0.304-0.019,0.544-0.029,0.719-0.029c0.148,0,0.253,0.039,0.316,0.118
					c0.064,0.078,0.111,0.171,0.14,0.279l1.058,3.641L147.662,86.455z"/>
			</g>
		</g>
	</g>
</g>
<g id="illus">
</g>
</svg>
